<svg xmlns="http://www.w3.org/2000/svg" viewBox="0 0 4220.27 1339.04"><defs><style>.cls-1,.cls-3{fill:#eb1f27;}.cls-2{font-size:686.48px;fill:#020b21;font-family:HelveticaNeueLTCom-BlkExO, Helvetica Neue LT Com;}.cls-3{font-size:462.89px;font-family:HelveticaNeueLTCom-CnO, Helvetica Neue LT Com;}</style></defs><title>logo 1</title><g id="Layer_2" data-name="Layer 2"><g id="Layer_1-2" data-name="Layer 1"><path class="cls-1" d="M1130.26,504.5q-17.85-3.83-45.86-20-212.48-122.8-425-245.26c-29.36-16.9-45-11.48-74.46,5.47Q421.15,339.25,257.6,433.92q-28.22,16.36-37.05,26.29c-26.75,30.23-15,75.44,19.39,93.21q29.73,15.33,66.15-6.06,54.44-32,247-142.69,35.4-20.37,52-24.19C698,359.15,766.25,466,708.55,541.94q-13.6,18-38.82,32.53Q561.55,637.37,453,699.81q-63.71,36.66-73.31,41.11C221.84,814.31,39.86,720.38,5.09,550.58c-19.73-96.51,19.25-193,93-256.57q17.69-15.24,58.29-39.29l2.67-1.57,4.49-2.64,4.6-2.67c52.9-30.53,104.63-60.79,156.35-92.7L511.32,44.54c14-8.27,28.25-16,42.94-22.85l.24-.11c16.67-7.83,34.46-7.1,52.54-8.95C663.93,6.85,707.37,24,755.19,51.89q75.4,44,150.85,88c14.49,8.39,30.68,21.61,46.23,30.59q122.88,71,245.65,142.21C1301.71,372.82,1246.9,529.2,1130.26,504.5Z"/><path class="cls-1" d="M1036.63,889.85c37.9-51.64-23.34-120.27-78.22-88.52Q780.08,904.59,675.38,964c-64.64,36.67-151.82-12.45-149.85-88q1.71-63.4,58.25-96.23Q695,715.2,806.63,651.06q61.44-35.26,73.52-40.66c97.48-43.41,214.69-21.79,291.1,51.26,112.25,107.33,109.64,288.88-5.72,391.83q-20.94,18.67-69.6,46.89Q929,1197.16,761.8,1293.59q-49.89,28.83-75.57,36.37c-74.44,22-127.94,1.86-195.64-37.3q-207.73-120-415.6-240.22c-33.22-19.22-53-33.39-66.11-65.23-27.38-66.28,18.63-134.7,87.18-139.54,35.2-2.48,55.77,11.48,92.61,32.76q201.74,116.64,403.69,233c24.35,14,40.16,16.66,64,3q172.9-99,345.15-199.13,26.17-15.21,35.15-27.47Z"/><text class="cls-2" transform="translate(1403 588.31)">smart</text><text class="cls-3" transform="translate(1652.12 1185.84)">interviewing</text></g></g></svg>